<svg viewBox="13.6 182.8 476 172" xmlns="http://www.w3.org/2000/svg" style="max-height: 500px" width="476" height="172">
<g>
<path fill="rgb(10,10,10)" d="M 236.50 341.01 C148.50,341.57 64.91,342.02 50.75,342.01 L 25.00 342.00 L 25.00 335.24 L 92.25 334.60 C198.02,333.59 418.37,332.00 452.25,332.00 L 483.00 332.00 L 483.00 338.76 L 439.75 339.38 C415.96,339.72 324.50,340.45 236.50,341.01 ZM 255.72 259.74 C252.68,262.79 247.17,265.09 244.50,264.42 C243.95,264.29 242.24,263.90 240.69,263.55 C237.50,262.85 229.00,255.45 229.00,253.37 C229.00,252.39 230.43,252.00 234.04,252.00 C240.99,252.00 247.78,248.38 251.47,242.70 C253.26,239.96 253.25,239.83 251.15,236.95 C249.97,235.33 248.04,232.69 246.87,231.08 L 244.74 228.16 L 246.88 224.69 C250.53,218.78 251.75,218.25 254.59,221.31 C257.89,224.87 259.35,225.12 274.50,224.79 L 287.50 224.50 L 283.78 222.58 C280.69,220.98 279.61,220.86 277.48,221.83 C273.25,223.76 272.00,223.32 272.00,219.90 C272.00,217.71 273.00,215.80 275.40,213.40 C281.07,207.73 287.08,209.18 295.96,218.35 C300.69,223.23 302.07,224.07 306.21,224.62 C309.16,225.01 311.00,225.76 311.00,226.56 C311.00,228.67 304.77,244.34 303.18,246.23 C301.91,247.75 299.25,247.99 281.77,248.23 L 261.81 248.50 L 260.46 252.43 C259.72,254.59 257.59,257.88 255.72,259.74 ZM 410.60 264.00 C409.81,264.00 408.56,264.18 407.83,264.40 C404.03,265.53 396.09,261.48 392.06,256.35 C389.37,252.93 390.17,252.00 395.81,251.99 C402.04,251.98 410.42,247.28 412.68,242.54 L 414.30 239.16 L 406.01 228.75 L 408.22 224.82 C411.71,218.62 412.49,218.34 416.52,221.89 L 420.07 225.00 L 434.16 225.00 C446.13,225.00 448.07,224.79 447.08,223.60 C445.30,221.45 441.01,220.75 437.79,222.09 C433.69,223.79 432.43,222.27 434.00,217.51 C435.34,213.44 439.94,210.01 444.05,210.00 C447.39,210.00 454.84,214.77 458.57,219.29 C461.65,223.03 465.45,225.00 469.57,225.00 C472.71,225.00 472.66,226.14 469.01,236.13 C467.12,241.30 466.28,244.23 464.35,245.88 C461.83,248.03 457.47,248.02 446.56,248.00 C445.44,248.00 444.26,248.00 443.00,248.00 L 423.32 248.00 L 422.16 251.88 C420.94,255.92 413.25,264.00 410.60,264.00 ZM 224.00 210.00 L 224.00 218.00 L 125.17 218.00 C70.81,218.00 26.03,217.70 25.67,217.33 C25.30,216.97 25.00,215.17 25.00,213.33 L 25.00 210.00 ZM 384.80 246.80 C383.94,247.66 377.48,248.00 362.05,248.00 C338.43,247.99 337.05,247.69 332.16,241.48 C327.12,235.07 327.37,223.28 332.69,216.96 C335.77,213.30 338.00,214.40 338.00,219.59 C338.00,221.87 338.61,223.26 339.93,223.96 C341.00,224.53 347.51,225.00 354.41,225.00 L 366.95 225.00 L 366.44 222.25 C365.32,216.26 374.32,208.46 379.58,210.86 C384.36,213.03 386.00,218.63 386.00,232.76 C386.00,241.41 385.61,245.99 384.80,246.80 ZM 99.56 269.57 C96.98,271.47 84.08,271.51 81.51,269.63 C79.74,268.33 79.73,268.10 81.32,264.73 C83.58,259.97 83.73,240.35 81.53,237.44 C78.57,233.52 79.59,232.10 88.44,227.86 C93.74,225.32 97.37,224.11 98.19,224.63 C98.91,225.09 102.09,225.31 105.26,225.14 C110.66,224.83 111.22,225.02 114.41,228.21 C125.50,239.30 117.73,258.25 102.75,256.61 C98.01,256.10 98.00,256.10 98.00,259.14 C98.00,260.82 98.79,263.53 99.75,265.17 C101.44,268.04 101.43,268.20 99.56,269.57 ZM 136.44 309.67 C135.30,310.50 131.77,311.00 127.00,311.00 C122.23,311.00 118.70,310.50 117.56,309.67 C115.80,308.38 115.80,308.24 117.62,305.46 C119.19,303.06 119.50,300.66 119.50,290.90 C119.50,280.70 119.25,278.94 117.54,277.05 C114.90,274.13 116.14,272.31 123.45,268.38 C128.61,265.61 130.20,265.25 137.80,265.20 C148.02,265.12 151.16,266.44 153.99,271.98 C158.27,280.37 155.50,290.67 147.79,295.00 C144.51,296.84 142.94,297.12 138.79,296.57 L 133.76 295.90 L 134.45 299.70 C134.84,301.79 135.85,304.59 136.71,305.92 C138.14,308.14 138.12,308.44 136.44,309.67 ZM 358.07 295.14 C356.33,296.55 354.19,296.98 349.14,296.94 C338.81,296.84 336.13,295.06 339.53,290.56 C341.51,287.95 341.39,280.47 339.32,276.97 C337.17,273.33 338.25,271.91 346.16,267.92 C353.27,264.33 357.00,264.07 357.00,267.17 L 357.00 269.35 L 359.31 267.17 C360.91,265.67 362.90,265.00 365.71,265.00 C371.62,265.00 375.05,269.25 377.92,280.12 C379.14,284.73 381.01,289.72 382.08,291.22 L 384.02 293.94 L 381.49 295.60 C377.98,297.90 369.62,297.06 366.67,294.12 C364.79,292.25 364.43,290.51 364.00,281.24 C363.58,272.19 363.23,270.47 361.80,270.20 C359.28,269.72 356.00,276.84 356.00,282.83 C356.00,286.35 356.61,288.51 358.18,290.51 L 360.37 293.28 ZM 325.10 295.87 C308.77,301.31 294.70,282.23 306.42,270.52 C311.04,265.90 313.43,264.84 319.39,264.79 C327.94,264.71 333.71,268.96 336.16,277.14 C338.37,284.50 333.27,293.14 325.10,295.87 ZM 182.98 294.75 C180.56,295.99 176.97,297.00 175.00,297.00 C170.05,297.00 162.98,293.18 160.17,289.00 C158.22,286.09 157.89,284.54 158.23,279.75 C158.55,275.07 159.17,273.42 161.56,270.91 C165.70,266.56 169.61,264.77 175.00,264.77 C180.52,264.77 184.79,266.77 188.38,271.04 C191.59,274.86 192.41,277.88 191.70,283.22 C190.98,288.58 188.41,291.98 182.98,294.75 ZM 184.47 254.72 C177.82,258.49 169.16,257.09 163.39,251.33 C156.06,243.99 158.49,231.42 168.22,226.38 C175.46,222.64 186.55,225.15 189.99,231.30 C191.34,233.71 191.34,234.29 189.97,236.73 C187.67,240.85 182.35,243.99 177.60,244.03 L 173.50 244.07 L 175.86 246.03 C177.16,247.11 179.09,248.00 180.16,248.00 C182.57,248.00 187.21,245.65 188.95,243.57 C190.72,241.43 193.00,241.59 193.00,243.85 C193.00,246.87 188.73,252.30 184.47,254.72 ZM 216.22 295.96 C204.08,299.33 188.11,292.38 195.06,286.75 C199.63,283.05 207.00,286.10 207.00,291.69 C207.00,293.31 207.58,294.00 208.94,294.00 C210.01,294.00 211.16,293.55 211.51,292.99 C212.96,290.63 210.48,287.84 203.85,284.35 C195.92,280.19 193.72,277.58 194.18,272.92 C194.61,268.62 198.01,266.25 205.67,264.90 C210.75,264.01 212.83,264.10 217.38,265.42 C222.41,266.88 223.01,267.36 223.92,270.67 C225.20,275.32 224.72,276.00 220.10,276.00 C215.85,276.00 213.00,273.65 213.00,270.14 C213.00,267.65 210.41,266.19 208.81,267.79 C206.47,270.13 208.94,273.87 215.26,277.55 C223.22,282.19 226.00,284.78 226.00,287.59 C226.00,290.41 221.11,294.60 216.22,295.96 ZM 140.84 255.40 C139.28,256.49 136.48,256.98 132.03,256.94 C121.81,256.84 119.14,255.04 122.53,250.56 C124.51,247.95 124.39,240.47 122.32,236.97 C120.17,233.33 121.25,231.91 129.16,227.92 C135.68,224.63 140.00,224.11 140.00,226.62 C140.00,228.10 140.20,228.10 142.46,226.62 C146.25,224.14 153.18,224.50 155.83,227.31 C158.54,230.20 158.56,232.01 155.93,235.37 C153.12,238.94 150.26,238.68 146.44,234.50 C140.56,228.09 138.47,230.53 139.17,242.94 C139.44,247.75 140.10,250.45 141.34,251.83 C143.06,253.73 143.05,253.85 140.84,255.40 ZM 273.96 294.53 C271.52,296.75 261.50,297.63 258.50,295.90 C254.66,293.69 254.00,291.82 254.00,283.22 C254.00,275.65 253.80,274.76 252.00,274.29 C248.76,273.44 249.71,271.27 253.75,270.29 C256.76,269.57 257.48,268.94 257.41,267.12 C257.29,263.89 265.49,255.00 268.59,255.00 C271.21,255.00 271.27,255.21 271.01,263.75 C270.89,267.96 271.17,269.00 272.45,269.00 C273.33,269.00 274.49,270.15 275.02,271.57 L 275.09 271.73 C275.73,273.41 276.04,274.23 275.76,274.63 C275.49,275.00 274.70,275.00 273.16,275.00 L 273.00 275.00 C270.07,275.00 270.00,275.12 270.00,279.93 C270.00,286.14 271.45,290.04 274.01,290.71 C276.53,291.37 276.52,292.22 273.96,294.53 ZM 299.32 295.86 C296.75,297.20 285.49,297.27 282.25,295.97 C279.66,294.93 279.45,293.32 281.53,290.56 C283.21,288.33 283.49,280.78 281.99,277.98 C281.10,276.31 281.49,275.95 285.24,274.98 C287.58,274.37 291.08,273.45 293.00,272.94 C294.92,272.43 296.84,272.01 297.25,272.01 C297.66,272.00 298.00,275.76 298.00,280.37 C298.00,287.37 298.34,289.17 300.11,291.42 C301.28,292.90 302.06,294.25 301.86,294.42 C301.66,294.59 300.52,295.24 299.32,295.86 ZM 247.56 295.57 C244.07,298.14 228.00,296.97 228.00,294.15 C228.00,293.64 228.67,291.94 229.49,290.36 C231.20,287.10 231.43,282.27 230.06,278.67 C229.16,276.29 229.34,276.16 235.81,274.56 C239.49,273.65 243.24,272.69 244.14,272.42 C245.57,272.00 245.77,272.93 245.64,279.72 C245.53,285.90 245.91,288.18 247.50,290.82 C249.48,294.11 249.48,294.16 247.56,295.57 ZM 134.98 291.48 C135.89,292.57 136.70,292.70 138.09,291.95 C142.70,289.49 144.48,279.47 141.55,272.47 C139.99,268.72 138.02,268.07 135.93,270.59 C134.10,272.79 133.34,289.50 134.98,291.48 ZM 99.25 252.29 C101.25,253.02 104.93,248.96 106.05,244.80 C108.44,235.92 102.57,224.32 99.04,230.93 C97.50,233.80 97.68,251.72 99.25,252.29 ZM 172.27 290.25 C173.14,293.36 175.47,293.87 176.85,291.25 C179.53,286.13 179.33,274.18 176.50,270.36 C175.18,268.57 175.05,268.57 173.31,270.29 C171.87,271.70 171.50,273.66 171.50,279.79 C171.50,284.03 171.85,288.74 172.27,290.25 ZM 316.98 290.43 C319.36,296.71 323.00,291.01 323.00,281.00 C323.00,274.32 321.40,269.00 319.38,269.00 C317.22,269.00 316.00,273.35 316.00,281.00 C316.00,284.78 316.44,289.02 316.98,290.43 ZM 212.36 260.49 C209.08,263.78 203.00,260.84 203.00,255.97 C203.00,250.28 211.36,248.07 214.03,253.05 C215.25,255.34 214.60,258.26 212.36,260.49 ZM 375.20 206.31 C371.65,209.71 371.02,209.68 367.47,205.96 C364.22,202.58 364.53,201.18 369.32,197.61 L 371.99 195.62 L 375.00 198.50 C378.70,202.05 378.73,202.93 375.20,206.31 ZM 289.48 263.02 C287.91,264.66 286.35,266.00 286.01,266.00 C285.67,266.00 283.86,264.42 281.98,262.48 L 278.57 258.96 L 281.74 255.80 C284.58,252.96 285.17,252.76 287.47,253.80 C288.88,254.45 290.55,256.11 291.18,257.50 C292.20,259.74 292.00,260.39 289.48,263.02 ZM 245.51 199.99 C242.75,203.04 240.21,202.55 239.18,198.75 C238.60,196.62 238.67,195.02 239.38,194.12 C240.26,193.00 240.57,193.19 241.03,195.12 C241.87,198.69 244.44,198.10 244.81,194.25 C245.16,190.64 247.46,189.82 248.29,193.00 C249.21,196.51 251.85,195.38 252.19,191.33 C252.59,186.55 255.01,185.55 254.99,190.17 C254.96,195.27 252.88,198.55 249.86,198.24 C248.34,198.08 246.61,198.78 245.51,199.99 ZM 173.00 237.19 C173.00,240.54 173.24,241.04 174.39,240.09 C176.61,238.25 178.28,233.26 177.59,230.52 C176.21,225.02 173.00,229.68 173.00,237.19 ZM 375.61 223.42 C376.16,224.86 380.00,225.75 380.00,224.43 C380.00,222.83 377.74,220.00 376.46,220.00 C374.88,220.00 374.65,220.93 375.61,223.42 Z"/>
<path fill="rgb(232,236,38)" d="M 98.00 291.43 C98.00,293.33 97.66,295.02 97.25,295.19 C96.84,295.36 80.30,295.27 60.50,295.00 L 24.50 294.50 L 24.50 288.50 L 61.25 288.24 L 98.00 287.98 ZM 337.75 320.37 C335.06,321.09 270.04,321.06 268.25,320.34 C267.56,320.06 267.00,318.52 267.00,316.92 L 267.00 314.00 L 340.00 314.00 L 340.00 316.88 C340.00,319.03 339.42,319.92 337.75,320.37 ZM 474.00 287.98 L 474.00 295.00 L 437.85 295.00 C407.77,295.00 401.88,295.00 400.75,292.68 C400.47,292.11 400.48,291.41 400.49,290.53 L 400.49 290.50 C400.50,288.54 401.26,288.49 437.25,288.24 ZM 237.81 317.25 L 237.50 320.50 L 202.50 320.68 C183.25,320.78 166.94,320.63 166.25,320.34 C165.56,320.06 165.00,318.52 165.00,316.92 L 165.00 314.00 L 238.13 314.00 Z"/>
<path fill="rgb(254,254,254)" d="M 0.00 250.00 L 0.00 0.00 L 250.00 0.00 L 500.00 0.00 L 500.00 250.00 L 500.00 500.00 L 250.00 500.00 L 0.00 500.00 L 0.00 250.00 ZM 236.50 341.01 C324.50,340.45 415.96,339.72 439.75,339.38 L 483.00 338.76 L 483.00 335.38 L 483.00 332.00 L 452.25 332.00 C418.37,332.00 198.02,333.59 92.25,334.60 L 25.00 335.24 L 25.00 338.62 L 25.00 342.00 L 50.75 342.01 C64.91,342.02 148.50,341.57 236.50,341.01 ZM 237.81 317.25 L 238.13 314.00 L 201.56 314.00 L 165.00 314.00 L 165.00 316.92 C165.00,318.52 165.56,320.06 166.25,320.34 C166.94,320.63 183.25,320.78 202.50,320.68 L 237.50 320.50 L 237.81 317.25 ZM 337.75 320.37 C339.42,319.92 340.00,319.03 340.00,316.88 L 340.00 314.00 L 303.50 314.00 L 267.00 314.00 L 267.00 316.92 C267.00,318.52 267.56,320.06 268.25,320.34 C270.04,321.06 335.06,321.09 337.75,320.37 ZM 136.44 309.67 C138.12,308.44 138.14,308.14 136.71,305.92 C135.85,304.59 134.84,301.79 134.45,299.70 L 133.76 295.90 L 138.79 296.57 C142.94,297.12 144.51,296.84 147.79,295.00 C155.50,290.67 158.27,280.37 153.99,271.98 C151.16,266.44 148.02,265.12 137.80,265.20 C130.20,265.25 128.61,265.61 123.45,268.38 C116.14,272.31 114.90,274.13 117.54,277.05 C119.25,278.94 119.50,280.70 119.50,290.90 C119.50,300.66 119.19,303.06 117.62,305.46 C115.80,308.24 115.80,308.38 117.56,309.67 C118.70,310.50 122.23,311.00 127.00,311.00 C131.77,311.00 135.30,310.50 136.44,309.67 ZM 182.98 294.75 C188.41,291.98 190.98,288.58 191.70,283.22 C192.41,277.88 191.59,274.86 188.38,271.04 C184.79,266.77 180.52,264.77 175.00,264.77 C169.61,264.77 165.70,266.56 161.56,270.91 C159.17,273.42 158.55,275.07 158.23,279.75 C157.89,284.54 158.22,286.09 160.17,289.00 C162.98,293.18 170.05,297.00 175.00,297.00 C176.97,297.00 180.56,295.99 182.98,294.75 ZM 216.22 295.96 C221.11,294.60 226.00,290.41 226.00,287.59 C226.00,284.78 223.22,282.19 215.26,277.55 C208.94,273.87 206.47,270.13 208.81,267.79 C210.41,266.19 213.00,267.65 213.00,270.14 C213.00,273.65 215.85,276.00 220.10,276.00 C224.72,276.00 225.20,275.32 223.92,270.67 C223.01,267.36 222.41,266.88 217.38,265.42 C212.83,264.10 210.75,264.01 205.67,264.90 C198.01,266.25 194.61,268.62 194.18,272.92 C193.72,277.58 195.92,280.19 203.85,284.35 C210.48,287.84 212.96,290.63 211.51,292.99 C211.16,293.55 210.01,294.00 208.94,294.00 C207.58,294.00 207.00,293.31 207.00,291.69 C207.00,286.10 199.63,283.05 195.06,286.75 C188.11,292.38 204.08,299.33 216.22,295.96 ZM 247.56 295.57 C249.48,294.16 249.48,294.11 247.50,290.82 C245.91,288.18 245.53,285.90 245.64,279.72 C245.77,272.93 245.57,272.00 244.14,272.42 C243.24,272.69 239.49,273.65 235.81,274.56 C229.34,276.16 229.16,276.29 230.06,278.67 C231.43,282.27 231.20,287.10 229.49,290.36 C228.67,291.94 228.00,293.64 228.00,294.15 C228.00,296.97 244.07,298.14 247.56,295.57 ZM 273.96 294.53 C276.52,292.22 276.53,291.37 274.01,290.71 C271.45,290.04 270.00,286.14 270.00,279.93 C270.00,275.12 270.07,275.00 273.00,275.00 C276.39,275.00 276.35,275.06 275.02,271.57 C274.49,270.15 273.33,269.00 272.45,269.00 C271.17,269.00 270.89,267.96 271.01,263.75 C271.27,255.21 271.21,255.00 268.59,255.00 C265.49,255.00 257.29,263.89 257.41,267.12 C257.48,268.94 256.76,269.57 253.75,270.29 C249.71,271.27 248.76,273.44 252.00,274.29 C253.80,274.76 254.00,275.65 254.00,283.22 C254.00,291.82 254.66,293.69 258.50,295.90 C261.50,297.63 271.52,296.75 273.96,294.53 ZM 299.32 295.86 C300.52,295.24 301.66,294.59 301.86,294.42 C302.06,294.25 301.28,292.90 300.11,291.42 C298.34,289.17 298.00,287.37 298.00,280.37 C298.00,275.76 297.66,272.00 297.25,272.01 C296.84,272.01 294.92,272.43 293.00,272.94 C291.08,273.45 287.58,274.37 285.24,274.98 C281.49,275.95 281.10,276.31 281.99,277.98 C283.49,280.78 283.21,288.33 281.53,290.56 C279.45,293.32 279.66,294.93 282.25,295.97 C285.49,297.27 296.75,297.20 299.32,295.86 ZM 325.10 295.87 C333.27,293.14 338.37,284.50 336.16,277.14 C333.71,268.96 327.94,264.71 319.39,264.79 C313.43,264.84 311.04,265.90 306.42,270.52 C294.70,282.23 308.77,301.31 325.10,295.87 ZM 358.07 295.14 L 360.37 293.28 L 358.18 290.51 C356.61,288.51 356.00,286.35 356.00,282.83 C356.00,276.84 359.28,269.72 361.80,270.20 C363.23,270.47 363.58,272.19 364.00,281.24 C364.43,290.51 364.79,292.25 366.67,294.12 C369.62,297.06 377.98,297.90 381.49,295.60 L 384.02 293.94 L 382.08 291.22 C381.01,289.72 379.14,284.73 377.92,280.12 C375.05,269.25 371.62,265.00 365.71,265.00 C362.90,265.00 360.91,265.67 359.31,267.17 L 357.00 269.35 L 357.00 267.17 C357.00,264.07 353.27,264.33 346.16,267.92 C338.25,271.91 337.17,273.33 339.32,276.97 C341.39,280.47 341.51,287.95 339.53,290.56 C336.13,295.06 338.81,296.84 349.14,296.94 C354.19,296.98 356.33,296.55 358.07,295.14 ZM 98.00 291.43 L 98.00 287.98 L 61.25 288.24 L 24.50 288.50 L 24.50 291.50 L 24.50 294.50 L 60.50 295.00 C80.30,295.27 96.84,295.36 97.25,295.19 C97.66,295.02 98.00,293.33 98.00,291.43 ZM 474.00 291.49 L 474.00 287.98 L 437.25 288.24 C401.26,288.49 400.50,288.54 400.49,290.50 C400.45,295.01 400.36,295.00 438.12,295.00 L 474.00 295.00 L 474.00 291.49 ZM 99.56 269.57 C101.43,268.20 101.44,268.04 99.75,265.17 C98.79,263.53 98.00,260.82 98.00,259.14 C98.00,256.10 98.01,256.10 102.75,256.61 C117.73,258.25 125.50,239.30 114.41,228.21 C111.22,225.02 110.66,224.83 105.26,225.14 C102.09,225.31 98.91,225.09 98.19,224.63 C97.37,224.11 93.74,225.32 88.44,227.86 C79.59,232.10 78.57,233.52 81.53,237.44 C83.73,240.35 83.58,259.97 81.32,264.73 C79.73,268.10 79.74,268.33 81.51,269.63 C84.08,271.51 96.98,271.47 99.56,269.57 ZM 289.48 263.02 C292.00,260.39 292.20,259.74 291.18,257.50 C290.55,256.11 288.88,254.45 287.47,253.80 C285.17,252.76 284.58,252.96 281.74,255.80 L 278.57 258.96 L 281.98 262.48 C283.86,264.42 285.67,266.00 286.01,266.00 C286.35,266.00 287.91,264.66 289.48,263.02 ZM 255.72 259.74 C257.59,257.88 259.72,254.59 260.46,252.43 L 261.81 248.50 L 281.77 248.23 C299.25,247.99 301.91,247.75 303.18,246.23 C304.77,244.34 311.00,228.67 311.00,226.56 C311.00,225.76 309.16,225.01 306.21,224.62 C302.07,224.07 300.69,223.23 295.96,218.35 C287.08,209.18 281.07,207.73 275.40,213.40 C273.00,215.80 272.00,217.71 272.00,219.90 C272.00,223.32 273.25,223.76 277.48,221.83 C279.61,220.86 280.69,220.98 283.78,222.58 L 287.50 224.50 L 274.50 224.79 C259.35,225.12 257.89,224.87 254.59,221.31 C251.75,218.25 250.53,218.78 246.88,224.69 L 244.74 228.16 L 246.87 231.08 C248.04,232.69 249.97,235.33 251.15,236.95 C253.25,239.83 253.26,239.96 251.47,242.70 C247.78,248.38 240.99,252.00 234.04,252.00 C230.43,252.00 229.00,252.39 229.00,253.37 C229.00,255.45 237.50,262.85 240.69,263.55 C242.24,263.90 243.95,264.29 244.50,264.42 C247.17,265.09 252.68,262.79 255.72,259.74 ZM 410.60 264.00 C413.25,264.00 420.94,255.92 422.16,251.88 L 423.32 248.00 L 443.00 248.00 C466.00,248.00 464.42,248.73 469.01,236.13 C472.66,226.14 472.71,225.00 469.57,225.00 C465.45,225.00 461.65,223.03 458.57,219.29 C454.84,214.77 447.39,210.00 444.05,210.00 C439.94,210.01 435.34,213.44 434.00,217.51 C432.43,222.27 433.69,223.79 437.79,222.09 C441.01,220.75 445.30,221.45 447.08,223.60 C448.07,224.79 446.13,225.00 434.16,225.00 L 420.07 225.00 L 416.52 221.89 C412.49,218.34 411.71,218.62 408.22,224.82 L 406.01 228.75 L 410.15 233.95 L 414.30 239.16 L 412.68 242.54 C410.42,247.28 402.04,251.98 395.81,251.99 C390.17,252.00 389.37,252.93 392.06,256.35 C396.09,261.48 404.03,265.53 407.83,264.40 C408.56,264.18 409.81,264.00 410.60,264.00 ZM 212.36 260.49 C214.60,258.26 215.25,255.34 214.03,253.05 C211.36,248.07 203.00,250.28 203.00,255.97 C203.00,260.84 209.08,263.78 212.36,260.49 ZM 140.84 255.40 C143.05,253.85 143.06,253.73 141.34,251.83 C140.10,250.45 139.44,247.75 139.17,242.94 C138.47,230.53 140.56,228.09 146.44,234.50 C150.26,238.68 153.12,238.94 155.93,235.37 C158.56,232.01 158.54,230.20 155.83,227.31 C153.18,224.50 146.25,224.14 142.46,226.62 C140.20,228.10 140.00,228.10 140.00,226.62 C140.00,224.11 135.68,224.63 129.16,227.92 C121.25,231.91 120.17,233.33 122.32,236.97 C124.39,240.47 124.51,247.95 122.53,250.56 C119.14,255.04 121.81,256.84 132.03,256.94 C136.48,256.98 139.28,256.49 140.84,255.40 ZM 184.47 254.72 C188.73,252.30 193.00,246.87 193.00,243.85 C193.00,241.59 190.72,241.43 188.95,243.57 C187.21,245.65 182.57,248.00 180.16,248.00 C179.09,248.00 177.16,247.11 175.86,246.03 L 173.50 244.07 L 177.60 244.03 C182.35,243.99 187.67,240.85 189.97,236.73 C191.34,234.29 191.34,233.71 189.99,231.30 C186.55,225.15 175.46,222.64 168.22,226.38 C158.49,231.42 156.06,243.99 163.39,251.33 C169.16,257.09 177.82,258.49 184.47,254.72 ZM 384.80 246.80 C385.61,245.99 386.00,241.41 386.00,232.76 C386.00,218.63 384.36,213.03 379.58,210.86 C374.32,208.46 365.32,216.26 366.44,222.25 L 366.95 225.00 L 354.41 225.00 C347.51,225.00 341.00,224.53 339.93,223.96 C338.61,223.26 338.00,221.87 338.00,219.59 C338.00,214.40 335.77,213.30 332.69,216.96 C327.37,223.28 327.12,235.07 332.16,241.48 C337.05,247.69 338.43,247.99 362.05,248.00 C377.48,248.00 383.94,247.66 384.80,246.80 ZM 224.00 214.00 L 224.00 210.00 L 124.50 210.00 L 25.00 210.00 L 25.00 213.33 C25.00,215.17 25.30,216.97 25.67,217.33 C26.03,217.70 70.81,218.00 125.17,218.00 L 224.00 218.00 L 224.00 214.00 ZM 375.20 206.31 C378.73,202.93 378.70,202.05 375.00,198.50 L 371.99 195.62 L 369.32 197.61 C364.53,201.18 364.22,202.58 367.47,205.96 C371.02,209.68 371.65,209.71 375.20,206.31 ZM 245.51 199.99 C246.61,198.78 248.34,198.08 249.86,198.24 C252.88,198.55 254.96,195.27 254.99,190.17 C255.01,185.55 252.59,186.55 252.19,191.33 C251.85,195.38 249.21,196.51 248.29,193.00 C247.46,189.82 245.16,190.64 244.81,194.25 C244.44,198.10 241.87,198.69 241.03,195.12 C240.57,193.19 240.26,193.00 239.38,194.12 C238.67,195.02 238.60,196.62 239.18,198.75 C240.21,202.55 242.75,203.04 245.51,199.99 ZM 134.98 291.48 C133.34,289.50 134.10,272.79 135.93,270.59 C138.02,268.07 139.99,268.72 141.55,272.47 C144.48,279.47 142.70,289.49 138.09,291.95 C136.70,292.70 135.89,292.57 134.98,291.48 ZM 172.27 290.25 C171.85,288.74 171.50,284.03 171.50,279.79 C171.50,273.66 171.87,271.70 173.31,270.29 C175.05,268.57 175.18,268.57 176.50,270.36 C179.33,274.18 179.53,286.13 176.85,291.25 C175.47,293.87 173.14,293.36 172.27,290.25 ZM 316.98 290.43 C316.44,289.02 316.00,284.78 316.00,281.00 C316.00,273.35 317.22,269.00 319.38,269.00 C321.40,269.00 323.00,274.32 323.00,281.00 C323.00,291.01 319.36,296.71 316.98,290.43 ZM 99.25 252.29 C97.68,251.72 97.50,233.80 99.04,230.93 C102.57,224.32 108.44,235.92 106.05,244.80 C104.93,248.96 101.25,253.02 99.25,252.29 ZM 173.00 237.19 C173.00,229.68 176.21,225.02 177.59,230.52 C178.28,233.26 176.61,238.25 174.39,240.09 C173.24,241.04 173.00,240.54 173.00,237.19 ZM 375.61 223.42 C374.65,220.93 374.88,220.00 376.46,220.00 C377.74,220.00 380.00,222.83 380.00,224.43 C380.00,225.75 376.16,224.86 375.61,223.42 Z"/>
</g>
</svg>